<svg width="48" height="49" viewBox="0 0 48 49" fill="none" xmlns="http://www.w3.org/2000/svg">
<path d="M45.8313 15.2662C43.7959 11.7407 39.6002 10.1115 35.7715 11.2361C33.8643 9.41931 31.5798 8.07642 29.0768 7.29895V1.91492C29.0768 1.15027 28.4572 0.530273 27.6921 0.530273C23.6235 0.530273 20.1152 3.3479 19.173 7.22314C16.6556 7.96252 14.3507 9.27136 12.4178 11.0577L7.75232 8.36426C7.43445 8.18079 7.05615 8.13098 6.70166 8.22583C6.3468 8.32105 6.04468 8.55286 5.86084 8.87109C3.82654 12.3951 4.51282 16.8428 7.39819 19.5963C7.08252 20.9059 6.92322 22.251 6.92322 23.6071C6.92322 24.9609 7.08325 26.3119 7.39929 27.6226C7.54761 28.2367 8.09216 28.6729 8.72388 28.6824C8.78943 28.6835 8.85571 28.6842 8.9231 28.6842C11.1284 28.6842 12.2827 28.1188 13.3011 27.6196C14.1932 27.1831 14.8975 26.8378 16.4612 26.8378C18.0249 26.8378 18.7295 27.1827 19.6212 27.6196C20.6397 28.1188 21.7939 28.6842 23.9993 28.6842C26.205 28.6842 27.3593 28.1188 28.3777 27.6196C29.2698 27.1831 29.974 26.8378 31.5377 26.8378C33.1018 26.8378 33.8064 27.1827 34.6981 27.6196C35.7166 28.1188 36.8708 28.6842 39.0765 28.6842C39.1447 28.6842 39.2113 28.6835 39.2769 28.6824C39.9082 28.6721 40.4528 28.2363 40.6007 27.6226C40.9167 26.3119 41.0768 24.9609 41.0768 23.6071C41.0768 22.3389 40.9373 21.0795 40.6611 19.8501L45.3245 17.1577C45.6427 16.9742 45.8745 16.6718 45.9697 16.3169C46.0649 15.9624 46.0151 15.5845 45.8313 15.2662Z" fill="#ECE8E7"/>
<path d="M24 13.9149C18.6555 13.9149 14.3079 18.2629 14.3079 23.6071C14.3079 24.3387 14.3899 25.0686 14.5518 25.7772C14.7023 26.4338 15.3025 26.8879 15.976 26.851C16.1345 26.8422 16.2979 26.8381 16.4612 26.8381C18.0249 26.8381 18.7291 27.1831 19.6212 27.62C20.6397 28.1188 21.7939 28.6842 23.9993 28.6842C26.2046 28.6842 27.3593 28.1188 28.3777 27.62C29.2694 27.1831 29.974 26.8381 31.5377 26.8381C31.7018 26.8381 31.8651 26.8422 32.0237 26.851C32.6968 26.8876 33.2977 26.4338 33.4479 25.7772C33.6101 25.069 33.6921 24.3387 33.6921 23.6071C33.6921 18.2629 29.3445 13.9149 24 13.9149Z" fill="#6D4C41"/>
<path d="M48 25.4535V47.1456C48 47.9099 47.3796 48.5303 46.6154 48.5303H1.38464C0.620361 48.5303 0 47.9099 0 47.1456V25.4535C0 24.6892 0.620361 24.0688 1.38464 24.0688C3.58997 24.0688 4.74463 24.6335 5.7627 25.1331C6.65442 25.5696 7.35864 25.9149 8.92236 25.9149C10.4861 25.9149 11.1914 25.5696 12.0831 25.1331C13.1012 24.6335 14.2559 24.0688 16.4612 24.0688C18.6665 24.0688 19.8212 24.6335 20.8392 25.1331C21.731 25.5696 22.4355 25.9149 23.9989 25.9149C25.5626 25.9149 26.2679 25.5696 27.1597 25.1331C28.1777 24.6335 29.3328 24.0688 31.5377 24.0688C33.743 24.0688 34.8977 24.6335 35.9161 25.1331C36.8086 25.5696 37.5128 25.9149 39.0765 25.9149C40.6403 25.9149 41.3445 25.5696 42.2373 25.1331C43.2554 24.6335 44.41 24.0688 46.6154 24.0688C47.3796 24.0688 48 24.6892 48 25.4535Z" fill="#64B5F6"/>
<path d="M48 31.4535V34.2224H46.6154C45.0516 34.2224 44.3474 34.5677 43.4546 35.0043C42.4365 35.5038 41.2819 36.0688 39.0765 36.0688C36.8712 36.0688 35.7166 35.5038 34.6985 35.0043C33.8057 34.5677 33.1014 34.2224 31.5377 34.2224C29.974 34.2224 29.2698 34.5677 28.3773 35.0043C27.3593 35.5038 26.2053 36.0688 23.9989 36.0688C21.7939 36.0688 20.64 35.5038 19.6208 35.0043C18.7291 34.5677 18.0249 34.2224 16.4612 34.2224C14.8975 34.2224 14.1932 34.5677 13.3008 35.0043C12.2823 35.5038 11.1288 36.0688 8.92236 36.0688C6.71741 36.0688 5.56348 35.5038 4.54431 35.0043C3.65259 34.5677 2.94836 34.2224 1.38464 34.2224H0V31.4535H1.38464C3.58997 31.4535 4.74463 32.0182 5.7627 32.5177C6.65442 32.9542 7.35864 33.2996 8.92236 33.2996C10.4861 33.2996 11.1914 32.9542 12.0831 32.5177C13.1012 32.0182 14.2559 31.4535 16.4612 31.4535C18.6665 31.4535 19.8212 32.0182 20.8392 32.5177C21.731 32.9542 22.4355 33.2996 23.9989 33.2996C25.5626 33.2996 26.2679 32.9542 27.1597 32.5177C28.1777 32.0182 29.3328 31.4535 31.5377 31.4535C33.743 31.4535 34.8977 32.0182 35.9161 32.5177C36.8086 32.9542 37.5128 33.2996 39.0765 33.2996C40.6403 33.2996 41.3445 32.9542 42.2373 32.5177C43.2554 32.0182 44.41 31.4535 46.6154 31.4535H48Z" fill="#008ADF"/>
<path d="M48 38.8381V41.6071H46.6154C45.0516 41.6071 44.3474 41.9524 43.4546 42.3889C42.4365 42.8884 41.2819 43.4535 39.0765 43.4535C36.8712 43.4535 35.7166 42.8884 34.6985 42.3889C33.8057 41.9524 33.1014 41.6071 31.5377 41.6071C29.974 41.6071 29.2698 41.9524 28.3773 42.3889C27.3593 42.8884 26.2053 43.4535 23.9989 43.4535C21.7939 43.4535 20.64 42.8884 19.6208 42.3889C18.7291 41.9524 18.0249 41.6071 16.4612 41.6071C14.8975 41.6071 14.1932 41.9524 13.3008 42.3889C12.2823 42.8884 11.1288 43.4535 8.92236 43.4535C6.71741 43.4535 5.56348 42.8884 4.54431 42.3889C3.65259 41.9524 2.94836 41.6071 1.38464 41.6071H0V38.8381H1.38464C3.58997 38.8381 4.74463 39.4028 5.7627 39.9023C6.65442 40.3389 7.35864 40.6842 8.92236 40.6842C10.4861 40.6842 11.1914 40.3389 12.0831 39.9023C13.1012 39.4028 14.2559 38.8381 16.4612 38.8381C18.6665 38.8381 19.8212 39.4028 20.8392 39.9023C21.731 40.3389 22.4355 40.6842 23.9989 40.6842C25.5626 40.6842 26.2679 40.3389 27.1597 39.9023C28.1777 39.4028 29.3328 38.8381 31.5377 38.8381C33.743 38.8381 34.8977 39.4028 35.9161 39.9023C36.8086 40.3389 37.5128 40.6842 39.0765 40.6842C40.6403 40.6842 41.3445 40.3389 42.2373 39.9023C43.2554 39.4028 44.41 38.8381 46.6154 38.8381H48Z" fill="#008ADF"/>
<path d="M45.8313 15.2662C43.7959 11.7407 39.6002 10.1115 35.7715 11.2361C33.8643 9.41931 31.5798 8.07642 29.0768 7.29895V1.91492C29.0768 1.15027 28.4572 0.530273 27.6921 0.530273C26.3807 0.530273 25.1279 0.824707 24 1.35132V28.6842C26.205 28.6842 27.3593 28.1188 28.3777 27.62C29.2698 27.1831 29.974 26.8381 31.5377 26.8381C33.1018 26.8381 33.8064 27.1831 34.6981 27.62C35.7166 28.1188 36.8708 28.6842 39.0765 28.6842C39.1447 28.6842 39.2113 28.6835 39.2769 28.6824C39.9082 28.6721 40.4528 28.2363 40.6007 27.6226C40.9167 26.3119 41.0768 24.9609 41.0768 23.6071C41.0768 22.3389 40.9373 21.0795 40.6611 19.8501L45.3245 17.1577C45.6427 16.9742 45.8745 16.6718 45.9697 16.3169C46.0649 15.9624 46.0151 15.5845 45.8313 15.2662Z" fill="#DED6D4"/>
<path d="M24 13.9149V28.6842C26.205 28.6842 27.3593 28.1188 28.3777 27.62C29.2698 27.1831 29.974 26.8381 31.5377 26.8381C31.7018 26.8381 31.8651 26.8422 32.0237 26.851C32.6968 26.8876 33.2977 26.4338 33.4479 25.7772C33.6101 25.069 33.6921 24.3387 33.6921 23.6071C33.6921 18.2629 29.3445 13.9149 24 13.9149Z" fill="#5D4037"/>
<path d="M46.6154 24.0688C44.41 24.0688 43.2554 24.6335 42.2373 25.1331C41.3445 25.5696 40.6403 25.9149 39.0765 25.9149C37.5128 25.9149 36.8086 25.5696 35.9161 25.1331C34.8977 24.6335 33.743 24.0688 31.5377 24.0688C29.3328 24.0688 28.1777 24.6335 27.1597 25.1331C26.2683 25.5696 25.563 25.9146 24 25.9149V48.5303H46.6154C47.3796 48.5303 48 47.9099 48 47.1456V25.4535C48 24.6892 47.3796 24.0688 46.6154 24.0688Z" fill="#008ADF"/>
<path d="M46.6154 31.4535C44.41 31.4535 43.2554 32.0182 42.2373 32.5177C41.3445 32.9542 40.6403 33.2996 39.0765 33.2996C37.5128 33.2996 36.8086 32.9542 35.9161 32.5177C34.8977 32.0182 33.743 31.4535 31.5377 31.4535C29.3328 31.4535 28.1777 32.0182 27.1597 32.5177C26.2683 32.9542 25.563 33.2992 24 33.2996V36.0688C26.2057 36.0685 27.3593 35.5038 28.3773 35.0043C29.2698 34.5677 29.974 34.2224 31.5377 34.2224C33.1014 34.2224 33.8057 34.5677 34.6985 35.0043C35.7166 35.5038 36.8712 36.0688 39.0765 36.0688C41.2819 36.0688 42.4365 35.5038 43.4546 35.0043C44.3474 34.5677 45.0516 34.2224 46.6154 34.2224H48V31.4535H46.6154Z" fill="#1976D2"/>
<path d="M46.6154 38.8381C44.41 38.8381 43.2554 39.4028 42.2373 39.9023C41.3445 40.3389 40.6403 40.6842 39.0765 40.6842C37.5128 40.6842 36.8086 40.3389 35.9161 39.9023C34.8977 39.4028 33.743 38.8381 31.5377 38.8381C29.3328 38.8381 28.1777 39.4028 27.1597 39.9023C26.2683 40.3389 25.563 40.6838 24 40.6842V43.4535C26.2057 43.4531 27.3593 42.8884 28.3773 42.3889C29.2698 41.9524 29.974 41.6071 31.5377 41.6071C33.1014 41.6071 33.8057 41.9524 34.6985 42.3889C35.7166 42.8884 36.8712 43.4535 39.0765 43.4535C41.2819 43.4535 42.4365 42.8884 43.4546 42.3889C44.3474 41.9524 45.0516 41.6071 46.6154 41.6071H48V38.8381H46.6154Z" fill="#1976D2"/>
</svg>
