<svg width="33" height="49" viewBox="0 0 33 49" fill="none" xmlns="http://www.w3.org/2000/svg">
<path d="M19.7205 22.6831C19.701 22.2096 19.4399 21.7789 19.0294 21.5416L17.1134 20.4357C16.6849 20.1881 16.1572 20.1881 15.7288 20.4357L13.8127 21.5416C13.4022 21.7789 13.1415 22.2096 13.1217 22.6831L12.2684 43.1598C12.2527 43.5366 12.3915 43.9036 12.6526 44.1757C12.9137 44.4481 13.2748 44.6019 13.652 44.6019H19.1906C19.5678 44.6019 19.9285 44.4481 20.1896 44.1757C20.4507 43.9036 20.5895 43.5366 20.5737 43.1598L19.7205 22.6831Z" fill="#64B5F6"/>
<g>
    <path d="M32.7949 21.4307C32.7001 21.0758 32.4679 20.7737 32.15 20.5898L21.4981 14.4401V2.1405C21.4981 1.37585 20.8781 0.755859 20.1134 0.755859C18.7951 0.755859 17.5441 1.04883 16.4213 1.57214L16.4213 23.2335L20.6777 25.6912C22.0554 26.4866 23.5606 26.8645 25.0474 26.8641C28.0803 26.8641 31.0342 25.2913 32.6569 22.4813C32.8403 22.1635 32.8902 21.7852 32.7949 21.4307Z" fill="#DED6D4"/>
    <path d="M32.7949 21.4307C32.7001 21.0758 32.4679 20.7737 32.15 20.5898L21.4981 14.4401V2.1405C21.4981 1.37585 20.8781 0.755859 20.1134 0.755859C15.278 0.755859 11.3441 4.6897 11.3441 9.52515V14.4401L0.69252 20.5898C0.0304102 20.9722 -0.196641 21.8192 0.185684 22.4813C1.35683 24.5098 3.24794 25.9607 5.51039 26.5671C6.26588 26.7697 7.03273 26.8696 7.79445 26.8696C9.31386 26.8696 10.8135 26.4712 12.1648 25.6912L16.4213 23.2335L20.6777 25.6912C22.0554 26.4866 23.5606 26.8641 25.0474 26.8641C28.0803 26.8641 31.0342 25.2913 32.6569 22.4813C32.8403 22.1635 32.8902 21.7852 32.7949 21.4307Z" fill="#ECE8E7"/>
</g>

<path d="M21.7288 41.8326H11.1134C9.20471 41.8326 7.65198 43.3857 7.65198 45.2944C7.65198 47.2031 9.20471 48.7559 11.1134 48.7559H21.7288C23.6375 48.7559 25.1906 47.2031 25.1906 45.2944C25.1906 43.3857 23.6375 41.8326 21.7288 41.8326Z" fill="#ECE8E7"/>
<path d="M16.4213 12.2944C13.6216 12.2944 11.3441 14.5719 11.3441 17.3712C11.3441 20.1705 13.6216 22.448 16.4213 22.448C19.2206 22.448 21.498 20.1705 21.498 17.3712C21.498 14.5719 19.2206 12.2944 16.4213 12.2944Z" fill="#64B5F6"/>
<path d="M19.7205 22.6831C19.701 22.2096 19.4399 21.7789 19.0294 21.5416L17.1134 20.4357C16.8992 20.3119 16.66 20.25 16.4213 20.25V44.6019H19.1906C19.5678 44.6019 19.9285 44.4481 20.1896 44.1757C20.4507 43.9036 20.5895 43.5366 20.5737 43.1598L19.7205 22.6831Z" fill="#008ADF"/>
<path d="M21.7288 41.8326H16.4213V48.7559H21.7288C23.6375 48.7559 25.1906 47.2031 25.1906 45.2944C25.1906 43.3857 23.6375 41.8326 21.7288 41.8326Z" fill="#DED6D4"/>
<path d="M16.4213 12.2944V22.448C19.2206 22.448 21.498 20.1705 21.498 17.3712C21.498 14.5719 19.2206 12.2944 16.4213 12.2944Z" fill="#008ADF"/>
</svg>
